<svg xmlns="http://www.w3.org/2000/svg" viewBox="0 0 366.16 136.91"><path d="M130.94 85.91c0 9.68 2.3 17.09 6.89 22.24s10.26 7.72 17 7.72 12.39-2.57 16.95-7.72c4.56-5.15 6.85-12.62 6.85-22.42s-2.28-16.91-6.85-22.05c-4.56-5.15-10.21-7.72-16.95-7.72s-12.4 2.57-17 7.72c-4.59 5.15-6.89 12.56-6.89 22.24m-26.46-1.38c0-8.58 2.11-16.88 6.34-24.9s10.21-14.15 17.96-18.38c7.75-4.23 16.4-6.34 25.96-6.34 14.76 0 26.86 4.79 36.29 14.38s14.15 21.7 14.15 36.34-4.76 27-14.29 36.71-21.52 14.56-35.97 14.56c-8.94 0-17.47-2.02-25.59-6.06-8.12-4.04-14.29-9.97-18.51-17.78-4.23-7.81-6.34-17.32-6.34-28.53M245.88 85.91c0 9.68 2.3 17.09 6.89 22.24 4.59 5.15 10.26 7.72 17 7.72s12.39-2.57 16.95-7.72c4.56-5.15 6.85-12.62 6.85-22.42s-2.28-16.91-6.85-22.05c-4.56-5.15-10.21-7.72-16.95-7.72s-12.4 2.57-17 7.72c-4.59 5.15-6.89 12.56-6.89 22.24m-26.46-1.38c0-8.58 2.11-16.88 6.34-24.9s10.21-14.15 17.96-18.38c7.75-4.23 16.4-6.34 25.96-6.34 14.76 0 26.86 4.79 36.29 14.38s14.15 21.7 14.15 36.34-4.76 27-14.29 36.71-21.52 14.56-35.97 14.56c-8.94 0-17.47-2.02-25.59-6.06-8.12-4.04-14.29-9.97-18.51-17.78-4.23-7.81-6.34-17.32-6.34-28.53"/><rect width="25.82" height="134.7" x="340.34" rx="5.07" ry="5.07"/><rect width="24.94" height="22.79" x="82.11" rx="5.07" ry="5.07"/><path d="M67.17 5.07C67.17 2.27 64.9 0 62.1 0H5.07A5.07 5.07 0 0 0 0 5.07v12.64c0 2.8 2.27 5.07 5.07 5.07h29.82c2.8 0 5.07 2.27 5.07 5.07v101.77c0 2.8 2.27 5.07 5.07 5.07h17.05c2.8 0 5.07-2.27 5.07-5.07V5.07Z" style="fill:#006dfe"/></svg>